Coordinates
version=1
nRows=11
nColumns=36
inDegrees=yes

Units are S.I. units (second, meters, Newtons, ...)
If the header above contains a line with 'inDegrees', this indicates whether rotational values are in degrees (yes) or radians (no).

endheader
time	pelvis_tilt	pelvis_list	pelvis_rotation	pelvis_tx	pelvis_ty	pelvis_tz	hip_flexion_r	hip_adduction_r	hip_rotation_r	knee_angle_r	knee_angle_r_beta	ankle_angle_r	subtalar_angle_r	mtp_angle_r	hip_flexion_l	hip_adduction_l	hip_rotation_l	knee_angle_l	knee_angle_l_beta	ankle_angle_l	subtalar_angle_l	mtp_angle_l	lumbar_extension	lumbar_bending	lumbar_rotation	arm_flex_r	arm_add_r	arm_rot_r	elbow_flex_r	pro_sup_r	arm_flex_l	arm_add_l	arm_rot_l	elbow_flex_l	pro_sup_l
      1.20000000	    -10.90019455	     -8.55963931	     11.10215211	      0.48251514	      0.88991323	      0.22685275	     48.68009220	     -5.14284738	     -7.13628439	     54.29207488	      0.94757546	     23.90298380	     -3.53623997	     -7.49999719	     54.90411289	    -16.00743676	      2.55475126	     54.36093366	      0.94877728	     29.87022816	      7.10648167	     -7.49999719	    -27.33461388	      2.18757527	      2.82231835	    -16.81446927	    -45.23094905	     38.29023719	     83.24857767	     80.13347135	    -13.63293173	    -44.33872076	     36.99706191	     90.37133406	     84.53422227
      1.21666670	    -13.04508958	     -8.80995223	     10.20908297	      0.48094064	      0.87249429	      0.22743116	     55.53634163	     -5.28991021	     -5.78144576	     62.39359378	      1.08897364	     28.06128339	     -3.85837759	     -7.49999725	     61.55961569	    -16.50167721	      2.95476405	     61.83446119	      1.07921494	     34.32250423	      7.13609461	     -7.49999725	    -29.24435782	      1.60017364	      3.73753481	    -16.25642747	    -45.54379930	     37.95492812	     84.54760376	     80.22607398	    -13.33236084	    -44.49130871	     36.43491978	     91.74103043	     84.50491693
      1.23333330	    -16.11899877	     -8.96358190	      9.11531756	      0.48855706	      0.85015114	      0.22822892	     62.12910983	     -5.35115842	     -4.60769971	     68.46000405	      1.19485248	     30.81896880	     -4.28064469	     -7.49999741	     67.87109559	    -16.83624693	      3.06674557	     67.45033969	      1.17723051	     36.86520669	      6.21559192	     -7.49999741	    -29.73624738	      0.66925704	      4.47714772	    -15.82681943	    -45.06030477	     37.08259973	     84.48763490	     80.07360566	    -13.40360151	    -44.14752552	     35.34880975	     92.28562467	     84.14279891
      1.25000000	    -18.41227473	     -9.08278594	      8.15597293	      0.49837650	      0.81510165	      0.22854865	     67.67781028	     -5.41206890	     -3.88234579	     74.40286138	      1.29857490	     33.89624156	     -3.80525225	     -7.49999728	     73.13720167	    -17.42391962	      3.36293798	     72.83843221	      1.27127046	     39.42870494	      5.91185730	     -7.49999728	    -30.53659389	     -0.24180553	      5.27803372	    -15.46492751	    -45.10621568	     36.66308959	     85.33948498	     80.75835966	    -13.34448447	    -44.52056017	     34.61190336	     94.26729872	     84.98912265
      1.26666670	    -21.41389231	     -8.88147263	      7.22955646	      0.51570933	      0.78933570	      0.22156676	     73.29653538	     -5.74033908	     -2.87326576	     79.71927125	      1.39136376	     36.49983072	     -3.71272120	     -7.49999725	     78.22197862	    -17.65666202	      3.43276433	     77.61965417	      1.35471853	     42.01227187	      5.52845356	     -7.49999725	    -29.62694880	     -1.32698410	      5.60252698	    -15.25294914	    -44.54874655	     36.35854210	     84.82086764	     80.81716168	    -13.86576091	    -44.36621590	     33.59906733	     94.92748707	     85.14683758
      1.28333330	    -23.39351116	     -8.73535560	      6.86319877	      0.52021342	      0.77755277	      0.21954632	     76.89891228	     -6.15732191	     -2.16943204	     83.52202511	      1.45773434	     38.37837004	     -3.53839424	     -7.49999732	     81.54199616	    -17.64198638	      3.51201640	     81.22265913	      1.41760283	     44.08796234	      5.28633429	     -7.49999732	    -29.71322218	     -2.06106492	      5.81739013	    -15.02629869	    -44.33649256	     36.14248887	     85.13976905	     80.49297402	    -14.10788753	    -44.52714591	     32.70885444	     96.17991686	     84.85992719
      1.30000000	    -25.22458640	     -8.71411047	      6.74157662	      0.52527057	      0.77255623	      0.21719042	     79.50118568	     -6.67086326	     -1.71908720	     85.87079754	      1.49872815	     39.52709106	     -3.40956320	     -7.49999740	     83.99747601	    -17.49051480	      3.48296629	     83.67326730	      1.46037401	     45.52577433	      5.17315934	     -7.49999740	    -30.25636730	     -2.59216860	      5.90548509	    -14.75646202	    -44.13522523	     35.88127422	     85.44457841	     80.04850061	    -14.22892283	    -44.59902581	     31.81697475	     97.30425563	     84.40404307
      1.31666670	    -26.79373543	     -8.74691584	      6.71195823	      0.53108590	      0.75099285	      0.22049627	     81.87757521	     -7.06321061	     -1.28806210	     88.22598456	      1.53983392	     40.71035512	     -3.11127533	     -7.49999738	     86.17585964	    -17.36291631	      3.71698269	     85.98238048	      1.50067564	     46.76471877	      5.32367722	     -7.49999738	    -30.80334231	     -2.86849579	      6.04627600	    -14.79669842	    -44.42584451	     35.61667906	     86.12312228	     79.98972823	    -14.35683379	    -45.08905474	     31.23996903	     98.97197851	     84.37432432
      1.33333330	    -28.53546185	     -8.69069265	      6.60777386	      0.53654266	      0.73224413	      0.22398039	     84.66795028	     -7.28236683	     -0.67405137	     90.79878036	      1.58473767	     41.72193256	     -3.12871235	     -7.49999734	     88.70951914	    -17.30547124	      3.92067444	     88.35118193	      1.54201902	     47.73194445	      4.95455996	     -7.49999734	    -30.44204806	     -3.44650111	      6.12490512	    -15.26473936	    -44.66327904	     35.10991119	     86.40570992	     79.89061736	    -15.23256877	    -45.80427629	     30.36014273	    100.84923630	     84.43946030
      1.35000000	    -30.23239968	     -8.52868518	      6.59638750	      0.52857669	      0.71839128	      0.22112211	     87.60898526	     -7.65747992	     -0.00019901	     93.22534274	      1.62708918	     42.58742457	     -2.96867081	     -7.49999792	     91.42281906	    -17.09647659	      4.06249619	     90.64254824	      1.58201091	     48.35607663	      4.63124456	     -7.49999792	    -30.10672242	     -3.91996298	      5.62733767	    -15.16460410	    -45.95228553	     35.90786192	     87.83453326	     75.81484364	    -17.69689436	    -46.53832509	     27.66245470	    103.60752712	     80.40703227
      1.36666670	    -31.58237339	     -8.57019681	      6.63494837	      0.53403428	      0.71787361	      0.21792833	     89.61796003	     -8.09141328	      0.24604875	     94.73609101	      1.65345671	     43.19188292	     -2.78515261	     -7.49999812	     93.47083643	    -16.78628062	      4.33239583	     92.29221384	      1.61080301	     48.70737060	      4.18707645	     -7.49999812	    -29.87833555	     -3.90136410	      5.91500990	    -16.50311558	    -46.97517724	     34.82141888	     89.29720442	     75.00535912	    -18.64081765	    -47.05998741	     26.44577104	    105.46939337	     79.63658692
